<svg width="895" height="563" viewBox="0 0 895 563" fill="none" xmlns="http://www.w3.org/2000/svg">
<path d="M249 1C292.667 48.5 373.7 193.5 366.5 301.5" stroke="url(#paint0_linear_180_18)"/>
<path d="M319 2C362.667 49.5 391.2 204 384 312" stroke="url(#paint1_linear_180_18)"/>
<path d="M401 1C420.253 73.3321 422 254.819 422 314" stroke="url(#paint2_linear_180_18)"/>
<ellipse cx="452" cy="398" rx="271" ry="165" fill="url(#paint3_radial_180_18)"/>
<circle cx="440" cy="347" r="90" fill="url(#paint4_linear_180_18)"/>
<g filter="url(#filter0_d_180_18)">
<path fill-rule="evenodd" clip-rule="evenodd" d="M478.508 306.891C478.508 309.14 476.685 310.963 474.435 310.963H406.436C404.187 310.963 402.364 309.14 402.364 306.891C402.364 304.641 404.187 302.818 406.436 302.818H474.435C476.685 302.818 478.508 304.641 478.508 306.891Z" fill="white"/>
<path fill-rule="evenodd" clip-rule="evenodd" d="M478.508 388.746C478.508 390.995 476.685 392.818 474.435 392.818H406.436C404.187 392.818 402.364 390.995 402.364 388.746C402.364 386.496 404.187 384.673 406.436 384.673H474.435C476.685 384.673 478.508 386.496 478.508 388.746Z" fill="white"/>
<path d="M449.002 306.891L417.592 346.866L449.002 389.697" stroke="white" stroke-width="8"/>
</g>
<path d="M440.5 266.5C562.105 266.5 672.179 281.55 751.835 305.872C791.666 318.034 823.863 332.505 846.091 348.552C868.331 364.606 880.5 382.168 880.5 400.5C880.5 418.832 868.331 436.394 846.091 452.448C823.863 468.495 791.666 482.966 751.835 495.128C672.179 519.45 562.105 534.5 440.5 534.5C318.895 534.5 208.821 519.45 129.165 495.128C89.3343 482.966 57.1374 468.495 34.9092 452.448C12.6694 436.394 0.5 418.832 0.5 400.5C0.5 382.168 12.6694 364.606 34.9092 348.552C57.1374 332.505 89.3343 318.034 129.165 305.872C208.821 281.55 318.895 266.5 440.5 266.5Z" stroke="url(#paint5_linear_180_18)"/>
<path d="M445 266.5C550.445 266.5 645.887 281.55 714.949 305.866C749.482 318.025 777.394 332.492 796.661 348.531C815.931 364.573 826.5 382.137 826.5 400.5C826.5 418.863 815.931 436.427 796.661 452.469C777.394 468.508 749.482 482.975 714.949 495.134C645.887 519.45 550.445 534.5 445 534.5C339.555 534.5 244.113 519.45 175.051 495.134C140.518 482.975 112.606 468.508 93.3389 452.469C74.0685 436.427 63.5 418.863 63.5 400.5C63.5 382.137 74.0685 364.573 93.3389 348.531C112.606 332.492 140.518 318.025 175.051 305.866C244.113 281.55 339.555 266.5 445 266.5Z" stroke="url(#paint6_linear_180_18)"/>
<path d="M455.5 266.5C551.414 266.5 638.225 281.548 701.039 305.86C732.448 318.017 757.832 332.481 775.354 348.516C792.877 364.55 802.5 382.118 802.5 400.5C802.5 418.882 792.877 436.45 775.354 452.484C757.832 468.519 732.448 482.983 701.039 495.14C638.225 519.452 551.414 534.5 455.5 534.5C359.586 534.5 272.775 519.452 209.961 495.14C178.552 482.983 153.168 468.519 135.646 452.484C118.123 436.45 108.5 418.882 108.5 400.5C108.5 382.118 118.123 364.55 135.646 348.516C153.168 332.481 178.552 318.017 209.961 305.86C272.775 281.548 359.586 266.5 455.5 266.5Z" stroke="url(#paint7_linear_180_18)"/>
<path d="M445 194.5C529.275 194.5 597.5 255.886 597.5 331.5C597.5 407.114 529.275 468.5 445 468.5C360.725 468.5 292.5 407.114 292.5 331.5C292.5 255.886 360.725 194.5 445 194.5Z" stroke="url(#paint8_linear_180_18)"/>
<path d="M444.5 285.5C485.162 285.5 521.951 294.664 548.556 309.454C575.177 324.254 591.5 344.62 591.5 367C591.5 389.38 575.177 409.746 548.556 424.546C521.951 439.336 485.162 448.5 444.5 448.5C403.838 448.5 367.049 439.336 340.444 424.546C313.823 409.746 297.5 389.38 297.5 367C297.5 344.62 313.823 324.254 340.444 309.454C367.049 294.664 403.838 285.5 444.5 285.5Z" stroke="url(#paint9_linear_180_18)"/>
<path d="M853.093 354.749C853.093 353.196 851.426 351.725 848.87 350.813C849.46 347.776 849.198 345.358 848.043 344.584C847.763 344.401 847.446 344.309 847.125 344.317V345.382C847.314 345.382 847.465 345.426 847.593 345.507C848.149 345.88 848.391 347.297 848.203 349.122C848.158 349.571 848.084 350.044 847.994 350.526C847.138 350.285 846.269 350.112 845.393 350.006C844.872 349.166 844.302 348.368 843.69 347.617C845.025 346.17 846.278 345.378 847.131 345.378V344.312C846.004 344.312 844.529 345.249 843.038 346.872C841.548 345.26 840.073 344.332 838.947 344.332V345.396C839.795 345.396 841.052 346.185 842.388 347.622C841.814 348.325 841.241 349.122 840.696 350.006C839.818 350.11 838.948 350.286 838.091 350.531C838.001 350.074 837.929 349.612 837.878 349.146C837.685 347.321 837.923 345.903 838.476 345.526C838.598 345.44 838.758 345.401 838.947 345.401V344.337C838.603 344.337 838.291 344.423 838.022 344.603C836.87 345.378 836.613 347.789 837.206 350.818C834.659 351.736 833 353.201 833 354.749C833 356.301 834.667 357.772 837.223 358.683C836.633 361.722 836.895 364.139 838.05 364.912C838.316 365.094 838.628 365.18 838.971 365.18C840.098 365.18 841.572 364.244 843.063 362.62C844.554 364.234 846.028 365.16 847.155 365.16C847.478 365.168 847.797 365.076 848.08 364.893C849.231 364.12 849.489 361.708 848.895 358.679C851.435 357.767 853.093 356.296 853.093 354.749ZM847.76 351.563C847.601 352.201 847.417 352.831 847.208 353.449C846.865 352.673 846.489 351.917 846.081 351.185C846.663 351.286 847.224 351.41 847.761 351.563H847.76ZM845.885 356.65C845.578 357.274 845.249 357.883 844.898 358.474C843.669 358.601 842.433 358.602 841.204 358.479C840.499 357.305 839.882 356.062 839.361 354.763C839.882 353.462 840.495 352.214 841.196 351.034C842.425 350.907 843.66 350.905 844.889 351.028C845.229 351.596 845.562 352.203 845.881 352.844C846.192 353.469 846.475 354.103 846.733 354.744C846.472 355.392 846.189 356.028 845.885 356.65ZM847.208 356.029C847.429 356.668 847.618 357.309 847.773 357.93C847.237 358.083 846.671 358.212 846.086 358.311C846.492 357.573 846.866 356.811 847.208 356.029ZM843.055 361.125C842.674 360.666 842.293 360.156 841.916 359.596C842.285 359.616 842.661 359.63 843.042 359.63C843.428 359.63 843.808 359.621 844.181 359.596C843.813 360.156 843.432 360.666 843.055 361.125ZM840.007 358.311C839.443 358.216 838.883 358.09 838.328 357.934C838.48 357.318 838.668 356.683 838.881 356.048C839.049 356.429 839.226 356.812 839.418 357.194C839.611 357.576 839.807 357.949 840.007 358.311ZM843.034 348.372C843.415 348.831 843.796 349.342 844.173 349.901C843.804 349.882 843.428 349.867 843.047 349.867C842.661 349.867 842.281 349.877 841.908 349.901C842.276 349.342 842.657 348.831 843.034 348.372ZM840.003 351.186C839.597 351.923 839.223 352.683 838.881 353.464C838.666 352.841 838.478 352.207 838.316 351.563C838.852 351.414 839.418 351.286 840.003 351.186ZM836.297 357.165C834.847 356.445 833.909 355.498 833.909 354.749C833.909 353.999 834.847 353.048 836.297 352.332C836.649 352.155 837.034 351.997 837.431 351.85C837.665 352.785 837.972 353.76 838.352 354.758C837.993 355.698 837.69 356.665 837.444 357.652C837.055 357.512 836.672 357.349 836.297 357.165ZM838.5 363.99C837.944 363.619 837.702 362.199 837.89 360.375C837.935 359.926 838.009 359.453 838.099 358.97C838.902 359.2 839.778 359.377 840.7 359.492C841.222 360.331 841.791 361.129 842.404 361.88C841.068 363.327 839.815 364.12 838.963 364.12C838.802 364.122 838.643 364.077 838.5 363.991V363.99ZM848.216 360.351C848.408 362.176 848.17 363.594 847.617 363.971C847.495 364.057 847.335 364.095 847.146 364.095C846.298 364.095 845.041 363.307 843.705 361.869C844.316 361.121 844.881 360.325 845.397 359.487C846.275 359.382 847.145 359.206 848.002 358.962C848.097 359.444 848.169 359.907 848.216 360.351ZM849.792 357.165C849.44 357.342 849.055 357.5 848.658 357.647C848.407 356.655 848.1 355.683 847.737 354.739C848.113 353.746 848.416 352.776 848.645 351.845C849.035 351.986 849.419 352.148 849.796 352.332C851.246 353.053 852.184 353.999 852.184 354.749C852.18 355.498 851.242 356.449 849.792 357.165Z" fill="url(#paint10_linear_180_18)"/>
<path d="M843.042 356.931C843.539 356.931 844.015 356.701 844.366 356.292C844.717 355.882 844.914 355.327 844.914 354.748C844.914 354.169 844.717 353.614 844.366 353.204C844.015 352.795 843.539 352.565 843.042 352.565C842.546 352.565 842.07 352.795 841.719 353.204C841.368 353.614 841.17 354.169 841.17 354.748C841.17 355.327 841.368 355.882 841.719 356.292C842.07 356.701 842.546 356.931 843.042 356.931Z" fill="url(#paint11_linear_180_18)"/>
<path d="M782.607 313.991H772.393C771.624 313.991 771 314.719 771 315.616V327.527C771 328.424 771.624 329.152 772.393 329.152H782.607C783.376 329.152 784 328.424 784 327.527V315.616C784 314.719 783.376 313.991 782.607 313.991ZM778.075 325.815C778.075 327.29 777.332 327.964 776.249 327.964C775.271 327.964 774.706 327.375 774.415 326.661L775.411 325.96C775.602 326.356 775.776 326.691 776.197 326.691C776.598 326.691 776.853 326.509 776.853 325.795V320.952H778.075V325.815ZM780.965 327.964C779.83 327.964 779.096 327.334 778.739 326.509L779.734 325.839C779.996 326.336 780.338 326.705 780.939 326.705C781.444 326.705 781.769 326.411 781.769 326.001C781.769 325.514 781.438 325.341 780.878 325.054L780.573 324.901C779.691 324.465 779.108 323.913 779.108 322.752C779.108 321.683 779.807 320.871 780.895 320.871C781.673 320.871 782.23 321.186 782.63 322.011L781.679 322.722C781.47 322.285 781.243 322.113 780.892 322.113C780.535 322.113 780.309 322.377 780.309 322.722C780.309 323.148 780.535 323.321 781.06 323.588L781.365 323.741C782.404 324.258 782.987 324.79 782.987 325.981C782.987 327.26 782.123 327.964 780.965 327.964Z" fill="url(#paint12_linear_180_18)"/>
<path d="M886.996 418.948C886.756 418.948 886.513 418.869 886.302 418.72L884.092 417.115C883.763 416.886 883.924 416.807 884.031 416.763C884.472 416.574 884.561 416.535 885.03 416.205C885.081 416.17 885.145 416.183 885.195 416.222L886.893 417.458C886.953 417.502 887.039 417.502 887.097 417.458L893.711 412.771C893.772 412.727 893.811 412.639 893.811 412.551V403.177C893.811 403.085 893.772 403.001 893.707 402.953L887.097 398.271C887.036 398.227 886.953 398.227 886.893 398.271L880.286 402.957C880.221 403.001 880.182 403.089 880.182 403.182V412.551C880.182 412.639 880.221 412.727 880.286 412.767L882.098 414.05C883.082 414.653 883.684 413.945 883.684 413.228V403.978C883.684 403.846 883.77 403.744 883.877 403.744H884.715C884.819 403.744 884.909 403.846 884.909 403.978V413.233C884.909 414.842 884.192 415.765 882.95 415.765C882.567 415.765 882.266 415.765 881.428 415.255L879.695 414.028C879.265 413.725 879 413.158 879 412.547V403.177C879 402.571 879.265 401.999 879.695 401.696L886.302 397.009C886.721 396.718 887.276 396.718 887.691 397.009L894.305 401.7C894.735 402.003 895 402.571 895 403.182V412.551C895 413.158 894.735 413.725 894.305 414.033L887.691 418.72C887.48 418.869 887.24 418.948 886.996 418.948ZM892.336 409.711C892.336 407.957 891.369 407.491 889.338 407.161C887.283 406.827 887.075 406.655 887.075 406.066C887.075 405.578 887.251 404.927 888.773 404.927C890.13 404.927 890.631 405.288 890.839 406.413C890.857 406.519 890.936 406.598 891.025 406.598H891.885C891.938 406.598 891.988 406.572 892.024 406.523C892.06 406.475 892.078 406.409 892.074 406.343C891.942 404.404 890.893 403.503 888.773 403.503C886.885 403.503 885.761 404.479 885.761 406.119C885.761 407.895 886.882 408.387 888.69 408.607C890.857 408.867 891.025 409.258 891.025 409.781C891.025 410.687 890.431 411.074 889.038 411.074C887.286 411.074 886.903 410.533 886.774 409.465C886.76 409.35 886.681 409.267 886.585 409.267H885.729C885.621 409.267 885.539 409.372 885.539 409.5C885.539 410.867 886.144 412.498 889.041 412.498C891.132 412.494 892.336 411.478 892.336 409.711Z" fill="url(#paint13_linear_180_18)"/>
<path fill-rule="evenodd" clip-rule="evenodd" d="M769.035 484.254C767.353 484.254 766 485.9 766 487.916C766 489.142 766.501 490.231 767.27 490.896C766.873 491.242 766.552 491.692 766.331 492.209C766.111 492.727 765.997 493.297 766 493.875C766 495.101 766.501 496.189 767.27 496.854C766.873 497.201 766.552 497.65 766.331 498.168C766.111 498.685 765.997 499.256 766 499.833C766 501.85 767.353 503.496 769.035 503.496C770.717 503.496 772.071 501.85 772.071 499.833V496.737C772.602 497.254 773.272 497.537 773.965 497.538C775.647 497.537 777 495.891 777 493.875C777.003 493.297 776.889 492.727 776.669 492.209C776.448 491.692 776.127 491.242 775.73 490.896C776.127 490.549 776.448 490.099 776.669 489.582C776.889 489.064 777.003 488.494 777 487.916C777 485.9 775.647 484.254 773.965 484.254H769.035ZM767.141 487.916C767.141 486.641 767.994 485.619 769.035 485.619H770.929V490.213H769.035C767.994 490.213 767.141 489.191 767.141 487.916ZM773.965 490.212H772.071V485.618H773.965C775.006 485.618 775.859 486.641 775.859 487.916C775.859 489.191 775.006 490.212 773.965 490.212ZM767.141 493.875C767.141 492.6 767.995 491.578 769.036 491.578H770.93V496.172H769.035C767.994 496.172 767.141 495.15 767.141 493.875H767.141ZM772.071 493.875C772.071 492.6 772.924 491.578 773.965 491.578C775.007 491.578 775.86 492.599 775.86 493.875C775.86 495.15 775.007 496.172 773.965 496.172C772.924 496.172 772.071 495.15 772.071 493.875H772.071ZM767.141 499.833C767.141 498.559 767.995 497.537 769.036 497.537H770.93V499.833C770.93 501.109 770.078 502.13 769.036 502.13C767.995 502.13 767.141 501.109 767.141 499.833Z" fill="url(#paint14_linear_180_18)"/>
<path d="M837.334 416.615H828.256C827.01 416.615 826 417.793 826 419.246V429.437C826 430.89 827.01 432.068 828.256 432.068H837.334C838.58 432.068 839.591 430.89 839.591 429.437V419.246C839.591 417.793 838.58 416.615 837.334 416.615Z" fill="url(#paint15_linear_180_18)"/>
<path d="M833.144 420.68L831.449 423.944L833.263 427.41C833.275 427.434 833.278 427.463 833.272 427.49C833.269 427.501 833.263 427.504 833.254 427.505L833.244 427.504L833.231 427.504C833.224 427.504 833.217 427.504 833.208 427.506H831.9L831.875 427.506C831.804 427.503 831.753 427.492 831.722 427.431C831.601 427.156 831.48 426.882 831.358 426.607C831.248 426.363 831.136 426.12 831.021 425.879L830.97 425.773C830.832 425.487 830.697 425.2 830.564 424.912H830.555C830.433 425.197 830.307 425.481 830.177 425.762C830.046 426.046 829.917 426.328 829.789 426.607C829.662 426.888 829.531 427.166 829.397 427.442C829.376 427.498 829.34 427.51 829.29 427.512L829.27 427.512H828.021L828.015 427.513L827.997 427.514C827.988 427.515 827.982 427.513 827.98 427.495C827.976 427.469 827.981 427.443 827.993 427.421L829.753 424.05L828.039 420.669C828.021 420.641 828.018 420.618 828.03 420.6C828.037 420.591 828.045 420.584 828.054 420.58C828.064 420.575 828.074 420.573 828.085 420.574H829.37C829.398 420.572 829.426 420.577 829.452 420.59C829.474 420.604 829.493 420.624 829.507 420.648C829.616 420.932 829.738 421.215 829.872 421.499C830.004 421.78 830.139 422.06 830.277 422.339C830.413 422.613 830.539 422.893 830.656 423.179H830.665C830.784 422.893 830.907 422.609 831.034 422.328C831.158 422.052 831.286 421.773 831.417 421.493C831.546 421.217 831.672 420.939 831.795 420.659C831.802 420.633 831.815 420.609 831.832 420.59C831.854 420.576 831.879 420.571 831.905 420.574H833.099C833.11 420.571 833.121 420.572 833.132 420.577C833.142 420.582 833.151 420.591 833.157 420.602C833.162 420.614 833.165 420.627 833.163 420.64C833.162 420.653 833.157 420.665 833.149 420.675L833.145 420.68L833.144 420.68ZM835.824 427.643L835.761 427.644C835.341 427.651 834.926 427.55 834.544 427.346C834.188 427.154 833.891 426.841 833.691 426.448C833.49 426.058 833.387 425.572 833.382 424.991L833.381 424.944C833.378 424.456 833.485 423.975 833.691 423.551C833.898 423.131 834.199 422.785 834.563 422.55L834.594 422.53C834.989 422.275 835.466 422.147 836.025 422.147L836.05 422.148L836.078 422.149L836.109 422.15L836.144 422.153L836.202 422.157L836.269 422.164L836.317 422.169V420.074C836.317 420.024 836.335 420 836.372 420H837.521C837.528 419.998 837.536 419.999 837.543 420.002C837.55 420.005 837.556 420.009 837.562 420.016C837.567 420.022 837.571 420.029 837.573 420.038C837.576 420.046 837.576 420.055 837.575 420.063V426.347C837.575 426.452 837.579 426.566 837.586 426.688L837.603 426.964L837.612 427.123C837.613 427.145 837.608 427.167 837.598 427.186C837.589 427.205 837.574 427.22 837.557 427.229C837.261 427.374 836.952 427.48 836.636 427.548C836.368 427.606 836.096 427.638 835.824 427.643ZM836.317 426.326V423.423C836.268 423.408 836.218 423.397 836.167 423.391C836.105 423.384 836.042 423.38 835.98 423.381C835.759 423.378 835.54 423.436 835.342 423.551C835.148 423.663 834.984 423.831 834.863 424.04C834.743 424.245 834.68 424.513 834.676 424.844L834.676 424.88C834.672 425.111 834.704 425.342 834.772 425.56C834.827 425.736 834.914 425.895 835.027 426.028C835.135 426.15 835.266 426.241 835.41 426.294C835.562 426.351 835.72 426.38 835.879 426.379C835.965 426.379 836.044 426.375 836.117 426.368C836.175 426.363 836.232 426.352 836.289 426.335L836.317 426.326Z" fill="black"/>
<path d="M723.624 327.445C724.693 326.729 725.759 326.007 726.831 325.299C727.849 324.626 729.046 325.246 729.277 326.555C729.41 327.312 729.121 328.13 728.535 328.528C726.613 329.834 724.689 331.135 722.755 332.416C722.156 332.812 721.54 332.739 720.994 332.253C720.44 331.76 720.265 331.08 720.395 330.288C720.544 329.686 720.883 329.283 721.346 328.981C722.112 328.483 722.865 327.958 723.624 327.445Z" fill="url(#paint16_linear_180_18)"/>
<path d="M724.409 326.925C723.343 326.203 722.274 325.488 721.212 324.759C720.203 324.067 720.065 322.548 720.922 321.66C721.417 321.147 722.169 321.031 722.758 321.423C724.689 322.711 726.617 324.004 728.535 325.317C729.129 325.723 729.383 326.383 729.295 327.176C729.206 327.982 728.788 328.499 728.135 328.764C727.613 328.915 727.144 328.774 726.689 328.457C725.936 327.932 725.169 327.434 724.409 326.925Z" fill="url(#paint17_linear_180_18)"/>
<path d="M714.693 326.414C714.009 326.868 713.325 327.32 712.641 327.775C712.242 328.04 711.846 328.315 711.444 328.577C710.635 329.104 709.673 328.795 709.214 327.867C708.776 326.981 709.028 325.833 709.807 325.302C711.714 324.005 713.625 322.717 715.543 321.443C716.131 321.052 716.741 321.101 717.285 321.568C717.86 322.061 718.047 322.755 717.919 323.568C717.839 323.765 717.791 323.995 717.671 324.15C717.476 324.403 717.255 324.644 717.008 324.821C716.246 325.37 715.466 325.886 714.693 326.414Z" fill="url(#paint18_linear_180_18)"/>
<path d="M713.909 326.922C714.587 327.386 715.265 327.851 715.945 328.314C716.342 328.585 716.744 328.847 717.139 329.122C717.935 329.676 718.187 330.801 717.727 331.729C717.288 332.614 716.31 332.934 715.526 332.412C713.609 331.136 711.697 329.85 709.792 328.55C709.208 328.151 708.939 327.51 709.014 326.727C709.093 325.901 709.514 325.364 710.182 325.088C710.368 325.07 710.563 325.003 710.738 325.046C711.023 325.117 711.313 325.22 711.568 325.38C712.356 325.876 713.13 326.406 713.909 326.922Z" fill="url(#paint19_linear_180_18)"/>
<path fill-rule="evenodd" clip-rule="evenodd" d="M127 386.295C123.134 386.295 120 390.211 120 395.041C120 399.871 123.134 403.788 127 403.788C130.866 403.788 134 399.871 134 395.041C134 390.211 130.866 386.295 127 386.295ZM127.082 400.156C124.825 400.156 122.998 397.868 122.998 395.041C122.998 392.215 124.825 389.926 127.082 389.926C128.184 389.926 129.106 390.434 129.813 391.259L128.661 392.701V392.698C128.233 392.186 127.689 391.924 127.082 391.924C125.734 391.924 124.639 393.35 124.639 395.038C124.639 396.726 125.734 398.156 127.082 398.156C128.304 398.156 129.136 397.28 129.308 396.077H127.082V394.082H130.923C130.974 394.425 131.002 394.782 131.002 395.156C131.002 398.079 129.44 400.156 127.082 400.156Z" fill="url(#paint20_linear_180_18)"/>
<path d="M31.2117 454.976H33.101V455.913H32.0018V456.851H33.101V457.788H31.2117V454.976ZM33.4785 454.976H35.3685V455.791H34.2692V455.954H35.3685V457.829H33.4785V456.973H34.5778V456.81H33.4785V454.976ZM35.7467 454.976H37.6353V455.791H36.536V455.954H37.6353V457.829H35.7467V456.973H36.846V456.81H35.7467V454.976Z" fill="url(#paint21_linear_180_18)"/>
<path fill-rule="evenodd" clip-rule="evenodd" d="M34.4935 475.308L29.4784 473.685L28 459.077H41L39.5223 473.683L34.4935 475.308ZM30.9228 465.69L31.0608 467.481H36.3886L36.2102 469.804L34.4957 470.344H34.4942L32.7826 469.805L32.6728 468.377H31.1294L31.3446 471.19L34.4935 472.209L37.6474 471.19L38.0317 466.17L38.0692 465.69L38.3466 462.063H30.6462L30.7863 463.855H36.6623L36.5222 465.69H30.9228Z" fill="url(#paint22_linear_180_18)"/>
<path d="M187.501 293.63H198.501V307.106H187.501V293.63ZM187 307.736H199V293H187V307.736ZM194.86 298.252C194.86 298.202 194.875 298.177 194.92 298.177H195.705C195.745 298.177 195.765 298.195 195.765 298.252V303.221C195.765 303.271 195.755 303.296 195.705 303.296H194.931C194.881 303.296 194.866 303.265 194.866 303.214V298.252H194.86H194.86ZM194.805 296.823C194.805 296.652 194.859 296.489 194.955 296.369C195.05 296.248 195.18 296.18 195.315 296.18C195.45 296.18 195.58 296.248 195.676 296.369C195.771 296.489 195.825 296.652 195.825 296.823C195.83 296.91 195.82 296.997 195.795 297.079C195.771 297.16 195.733 297.234 195.683 297.295C195.634 297.356 195.574 297.403 195.509 297.433C195.444 297.462 195.374 297.473 195.305 297.465C195.238 297.47 195.17 297.457 195.107 297.427C195.044 297.396 194.986 297.349 194.939 297.288C194.892 297.227 194.855 297.154 194.832 297.074C194.809 296.993 194.8 296.908 194.806 296.823H194.805ZM192.555 300.324C192.415 299.623 192.084 298.102 191.96 297.365H191.95C191.845 298.102 191.581 299.348 191.371 300.324H192.555ZM191.165 301.345L190.77 303.234C190.76 303.284 190.745 303.297 190.695 303.297H189.961C189.911 303.297 189.901 303.278 189.911 303.202L191.331 296.941C191.365 296.77 191.382 296.595 191.381 296.418C191.381 296.374 191.396 296.355 191.421 296.355H192.471C192.506 296.355 192.521 296.368 192.531 296.418L194.121 303.213C194.131 303.263 194.121 303.295 194.081 303.295H193.251C193.211 303.295 193.186 303.283 193.176 303.241L192.766 301.346H191.166L191.165 301.345Z" fill="url(#paint23_linear_180_18)"/>
<path fill-rule="evenodd" clip-rule="evenodd" d="M82 331.567C82 331.236 82.1107 330.918 82.3077 330.684C82.5047 330.45 82.7719 330.318 83.0505 330.318H93.5224C93.6604 330.318 93.7972 330.35 93.9248 330.413C94.0524 330.475 94.1684 330.567 94.2661 330.683C94.3638 330.799 94.4413 330.937 94.4941 331.089C94.5469 331.24 94.5741 331.403 94.574 331.567V344.014C94.5742 344.178 94.5471 344.341 94.4943 344.492C94.4416 344.644 94.3642 344.782 94.2665 344.898C94.1689 345.014 94.053 345.106 93.9254 345.169C93.7978 345.232 93.661 345.264 93.5229 345.264H83.0505C82.9125 345.264 82.7758 345.232 82.6484 345.169C82.5209 345.106 82.405 345.014 82.3075 344.898C82.2099 344.782 82.1326 344.644 82.0798 344.493C82.027 344.341 81.9999 344.179 82 344.015V331.567ZM86.977 336.017H88.6797V337.033C88.9254 336.449 89.5541 335.923 90.4989 335.923C92.3101 335.923 92.7393 337.087 92.7393 339.222V343.177H90.9064V339.708C90.9064 338.492 90.6606 337.806 90.0365 337.806C89.1706 337.806 88.8105 338.546 88.8105 339.708V343.177H86.977V336.017ZM83.8335 343.084H85.667V335.923H83.8335V343.083V343.084ZM85.9294 333.587C85.9328 333.774 85.9049 333.959 85.8472 334.133C85.7895 334.307 85.7032 334.465 85.5934 334.598C85.4836 334.732 85.3525 334.838 85.2078 334.91C85.063 334.982 84.9076 335.02 84.7506 335.02C84.5935 335.02 84.4381 334.982 84.2934 334.91C84.1486 334.838 84.0175 334.732 83.9077 334.598C83.7979 334.465 83.7116 334.307 83.6539 334.133C83.5962 333.959 83.5683 333.774 83.5718 333.587C83.5785 333.221 83.7057 332.873 83.926 332.616C84.1464 332.36 84.4423 332.217 84.7506 332.217C85.0588 332.217 85.3548 332.36 85.5751 332.616C85.7954 332.873 85.9226 333.221 85.9294 333.587Z" fill="url(#paint24_linear_180_18)"/>
<path d="M140.754 464.43L142.232 466.826L149.714 464.43M132.979 483.089L137.027 478.516L134.591 475.495M140.14 464.43L137.977 466.682L141.616 466.838M131.731 464.431L132.507 466.271L136.79 466.578M134.023 473.971L137.187 467.153L128 466.577M134.391 474.402L137.38 478.111L140.676 474.379L141.698 467.425L137.682 467.186L134.391 474.402Z" fill="url(#paint25_linear_180_18)"/>
<path d="M652 1C608.333 48.5 527.3 193.5 534.5 301.5" stroke="url(#paint26_linear_180_18)"/>
<path d="M582 2C538.333 49.5 509.8 204 517 312" stroke="url(#paint27_linear_180_18)"/>
<path d="M500 1C480.747 73.3321 479 254.819 479 314" stroke="url(#paint28_linear_180_18)"/>
<defs>
<filter id="filter0_d_180_18" x="388.364" y="289.818" width="104.144" height="118" filterUnits="userSpaceOnUse" color-interpolation-filters="sRGB">
<feFlood flood-opacity="0" result="BackgroundImageFix"/>
<feColorMatrix in="SourceAlpha" type="matrix" values="0 0 0 0 0 0 0 0 0 0 0 0 0 0 0 0 0 0 127 0" result="hardAlpha"/>
<feOffset dy="1"/>
<feGaussianBlur stdDeviation="7"/>
<feComposite in2="hardAlpha" operator="out"/>
<feColorMatrix type="matrix" values="0 0 0 0 1 0 0 0 0 1 0 0 0 0 1 0 0 0 0.55 0"/>
<feBlend mode="normal" in2="BackgroundImageFix" result="effect1_dropShadow_180_18"/>
<feBlend mode="normal" in="SourceGraphic" in2="effect1_dropShadow_180_18" result="shape"/>
</filter>
<linearGradient id="paint0_linear_180_18" x1="312.752" y1="26" x2="312.752" y2="301.5" gradientUnits="userSpaceOnUse">
<stop stop-color="#3D1768"/>
<stop offset="1" stop-color="#3D1768" stop-opacity="0"/>
</linearGradient>
<linearGradient id="paint1_linear_180_18" x1="355.423" y1="25" x2="355.423" y2="312" gradientUnits="userSpaceOnUse">
<stop stop-color="#3D1768"/>
<stop offset="1" stop-color="#3D1768" stop-opacity="0"/>
</linearGradient>
<linearGradient id="paint2_linear_180_18" x1="424" y1="27" x2="424" y2="324" gradientUnits="userSpaceOnUse">
<stop stop-color="#3D1768"/>
<stop offset="1" stop-color="#3D1768" stop-opacity="0"/>
</linearGradient>
<radialGradient id="paint3_radial_180_18" cx="0" cy="0" r="1" gradientUnits="userSpaceOnUse" gradientTransform="translate(452 398) rotate(90) scale(165 271)">
<stop stop-color="#763CAC"/>
<stop offset="1" stop-color="#320F85" stop-opacity="0"/>
</radialGradient>
<linearGradient id="paint4_linear_180_18" x1="440" y1="257" x2="440" y2="437" gradientUnits="userSpaceOnUse">
<stop stop-color="#301080" stop-opacity="0.6"/>
<stop offset="1" stop-color="#7840AD" stop-opacity="0.36"/>
</linearGradient>
<linearGradient id="paint5_linear_180_18" x1="440.5" y1="266" x2="440.5" y2="535" gradientUnits="userSpaceOnUse">
<stop stop-opacity="0"/>
<stop offset="0.479167" stop-color="#763CAC"/>
</linearGradient>
<linearGradient id="paint6_linear_180_18" x1="445" y1="266" x2="445" y2="535" gradientUnits="userSpaceOnUse">
<stop stop-opacity="0"/>
<stop offset="0.479167" stop-color="#763CAC"/>
</linearGradient>
<linearGradient id="paint7_linear_180_18" x1="455.5" y1="266" x2="455.5" y2="535" gradientUnits="userSpaceOnUse">
<stop stop-opacity="0"/>
<stop offset="0.479167" stop-color="#763CAC"/>
</linearGradient>
<linearGradient id="paint8_linear_180_18" x1="445" y1="194" x2="445" y2="469" gradientUnits="userSpaceOnUse">
<stop offset="0.197917" stop-opacity="0"/>
<stop offset="1" stop-color="#763CAC"/>
</linearGradient>
<linearGradient id="paint9_linear_180_18" x1="444.5" y1="285" x2="444.5" y2="449" gradientUnits="userSpaceOnUse">
<stop offset="0.197917" stop-opacity="0"/>
<stop offset="1" stop-color="#763CAC"/>
</linearGradient>
<linearGradient id="paint10_linear_180_18" x1="843.047" y1="344.312" x2="843.047" y2="365.18" gradientUnits="userSpaceOnUse">
<stop stop-color="#693B93" stop-opacity="0.53"/>
<stop offset="1" stop-color="#693B93"/>
</linearGradient>
<linearGradient id="paint11_linear_180_18" x1="843.042" y1="352.565" x2="843.042" y2="356.931" gradientUnits="userSpaceOnUse">
<stop stop-color="#693B93" stop-opacity="0.53"/>
<stop offset="1" stop-color="#693B93"/>
</linearGradient>
<linearGradient id="paint12_linear_180_18" x1="777.5" y1="313.991" x2="777.5" y2="329.152" gradientUnits="userSpaceOnUse">
<stop stop-color="#693B93" stop-opacity="0.53"/>
<stop offset="1" stop-color="#693B93"/>
</linearGradient>
<linearGradient id="paint13_linear_180_18" x1="887" y1="396.791" x2="887" y2="418.948" gradientUnits="userSpaceOnUse">
<stop stop-color="#693B93" stop-opacity="0.53"/>
<stop offset="1" stop-color="#693B93"/>
</linearGradient>
<linearGradient id="paint14_linear_180_18" x1="771.5" y1="484.254" x2="771.5" y2="503.496" gradientUnits="userSpaceOnUse">
<stop stop-color="#693B93" stop-opacity="0.53"/>
<stop offset="1" stop-color="#693B93"/>
</linearGradient>
<linearGradient id="paint15_linear_180_18" x1="832.795" y1="416.615" x2="832.795" y2="432.068" gradientUnits="userSpaceOnUse">
<stop stop-color="#693B93" stop-opacity="0.53"/>
<stop offset="1" stop-color="#693B93"/>
</linearGradient>
<linearGradient id="paint16_linear_180_18" x1="724.832" y1="325.025" x2="724.832" y2="332.671" gradientUnits="userSpaceOnUse">
<stop stop-color="#693B93" stop-opacity="0.53"/>
<stop offset="1" stop-color="#693B93"/>
</linearGradient>
<linearGradient id="paint17_linear_180_18" x1="724.835" y1="321.189" x2="724.835" y2="328.825" gradientUnits="userSpaceOnUse">
<stop stop-color="#693B93" stop-opacity="0.53"/>
<stop offset="1" stop-color="#693B93"/>
</linearGradient>
<linearGradient id="paint18_linear_180_18" x1="713.479" y1="321.181" x2="713.479" y2="328.833" gradientUnits="userSpaceOnUse">
<stop stop-color="#693B93" stop-opacity="0.53"/>
<stop offset="1" stop-color="#693B93"/>
</linearGradient>
<linearGradient id="paint19_linear_180_18" x1="713.479" y1="325.032" x2="713.479" y2="332.664" gradientUnits="userSpaceOnUse">
<stop stop-color="#693B93" stop-opacity="0.53"/>
<stop offset="1" stop-color="#693B93"/>
</linearGradient>
<linearGradient id="paint20_linear_180_18" x1="127" y1="386.295" x2="127" y2="403.788" gradientUnits="userSpaceOnUse">
<stop stop-color="#693B93" stop-opacity="0.53"/>
<stop offset="1" stop-color="#693B93"/>
</linearGradient>
<linearGradient id="paint21_linear_180_18" x1="34.4235" y1="454.976" x2="34.4235" y2="457.829" gradientUnits="userSpaceOnUse">
<stop stop-color="#693B93" stop-opacity="0.53"/>
<stop offset="1" stop-color="#693B93"/>
</linearGradient>
<linearGradient id="paint22_linear_180_18" x1="34.5" y1="459.077" x2="34.5" y2="475.308" gradientUnits="userSpaceOnUse">
<stop stop-color="#693B93" stop-opacity="0.53"/>
<stop offset="1" stop-color="#693B93"/>
</linearGradient>
<linearGradient id="paint23_linear_180_18" x1="193" y1="293" x2="193" y2="307.736" gradientUnits="userSpaceOnUse">
<stop stop-color="#693B93" stop-opacity="0.53"/>
<stop offset="1" stop-color="#693B93"/>
</linearGradient>
<linearGradient id="paint24_linear_180_18" x1="88.287" y1="330.318" x2="88.287" y2="345.264" gradientUnits="userSpaceOnUse">
<stop stop-color="#693B93" stop-opacity="0.53"/>
<stop offset="1" stop-color="#693B93"/>
</linearGradient>
<linearGradient id="paint25_linear_180_18" x1="138.857" y1="464.43" x2="138.857" y2="483.089" gradientUnits="userSpaceOnUse">
<stop stop-color="#693B93" stop-opacity="0.53"/>
<stop offset="1" stop-color="#693B93"/>
</linearGradient>
<linearGradient id="paint26_linear_180_18" x1="588.248" y1="26" x2="588.248" y2="301.5" gradientUnits="userSpaceOnUse">
<stop stop-color="#3D1768"/>
<stop offset="1" stop-color="#3D1768" stop-opacity="0"/>
</linearGradient>
<linearGradient id="paint27_linear_180_18" x1="545.577" y1="25" x2="545.577" y2="312" gradientUnits="userSpaceOnUse">
<stop stop-color="#3D1768"/>
<stop offset="1" stop-color="#3D1768" stop-opacity="0"/>
</linearGradient>
<linearGradient id="paint28_linear_180_18" x1="477" y1="27" x2="477" y2="324" gradientUnits="userSpaceOnUse">
<stop stop-color="#3D1768"/>
<stop offset="1" stop-color="#3D1768" stop-opacity="0"/>
</linearGradient>
</defs>
</svg>
